<svg width="128" height="128" viewBox="0 0 128 128" xmlns="http://www.w3.org/2000/svg">
    <title>dota_2</title>
    <g fill-rule="nonzero" fill="none">
        <path d="M121.7.2H6.6C3.1.2.3 3 .3 6.5v115.1c0 3.5 2.8 6.3 6.3 6.3h115.1c3.5 0 6.3-2.8 6.3-6.3V6.6c0-3.5-2.8-6.4-6.3-6.4zM95.1 20.5l8.9 7.6-3.8 17.7-24-19 18.9-6.3zm-67 88.5L15.4 96.4l8.9-21.5 25.3 25.3-21.5 8.8zm78.4-5L90 105.2 14.1 25.5l6.3-5.1h5.1l88.6 60.7-7.6 22.9z"
              fill="#A51C0E"/>
        <g fill="#FFF" opacity=".09">
            <path d="M83.3 32.4l7 7 .8-.8zM30.5 42.8L14.1 25.5l6.3-5.1h5.1l88.1 60.4.1-.1L33.1.2H6.6C3.1.2.3 3 .3 6.5v5.9l30.2 30.4zM22.4 103.7l.1-.2-7.1-7.1 8.8-21.5-24-24v30.6zM77.3 26.4l17.8-5.9 7.5 6.4L75.9.2H51.1z"/>
        </g>
    </g>
</svg>