<svg width="128" height="128" viewBox="0 0 128 128" xmlns="http://www.w3.org/2000/svg">
    <title>lol</title>
    <g fill-rule="nonzero" fill="none">
        <path d="M6.3 0h115.3c3.5 0 6.3 2.8 6.3 6.3v115.3c0 3.5-2.8 6.3-6.3 6.3H6.3c-3.5 0-6.3-2.8-6.3-6.3V6.3C0 2.8 2.8 0 6.3 0z"
              fill="#0C2B4C"/>
        <path d="M0 6.3v77.9l30.2 29.9 28.3-1.7 36.7-1.2 12.4-9.8-59.1-59-4.1 20.9 1 3.6-4.2 12.4 3.1-16-4.5-15.7 18.4-33L43.5 0H6.4C2.9 0 0 2.8 0 6.3z"
              fill="#FFF" opacity=".07"/>
        <path fill="#F3AE25" d="M30.2 14.3l7.4 9.5v76.4l-8.2 13.9h68.4l11.1-13.9H58.4V14.3z"/>
    </g>
</svg>