<svg width="128" height="128" viewBox="0 0 128 128" xmlns="http://www.w3.org/2000/svg">
    <title>csgo</title>
    <g fill-rule="nonzero" fill="none">
        <path d="M6.3 0h115.3c3.5 0 6.3 2.8 6.3 6.3v115.3c0 3.5-2.8 6.3-6.3 6.3H6.3c-3.5 0-6.3-2.8-6.3-6.3V6.3C0 2.8 2.8 0 6.3 0z"
              fill="#E9A21A"/>
        <path d="M6.3 0C2.8 0 0 2.8 0 6.3v115.3c0 3.5 2.8 6.3 6.3 6.3H71V83.6H60.8V0H6.3z" fill="#1E2C6A"/>
        <path d="M101.6 0H6.3C2.8 0 0 2.8 0 6.3V112l16 16h6.5l1.8-2.4 1.5-7.7 9.3-20.1L65.4 128h2l4.9-2.4L70.7 93 55.2 69.8l6.2-23.2L66 35.7l9.3 3.1 7.7-6.2 6.2-10.8 32.4-1.5-20-20.3z"
              fill="#FFF" opacity=".09"/>
        <path d="M121.7 19.6H109v-1.5h-1v-4h-1.5v4.5H105v-1H77.5v-1h-3l-6.1 1.5-.5-3 3.6-2V8L71 7l-.5-1V4.5c-1.4-2-6.4-4-9.1-4-2.8 0-5.3.3-8.1 4.5s-1 9.1-1 9.1v2.5c-1.3-1.1-4.1-1.5-4.1-1.5-7.4 0-10.7 11.3-10.7 15.1 0 3.8.5 6.6.5 6.6h-4.1c-1.3 0-1.5 2.7-1.5 5.5-.1 2.8-.9 7.2-.5 8.1.3.8 3.6 1 3.6 1s-.9.4-2 2c-1.2 1.7 0 6.1 0 6.1v7.1l-.7.4-1 1v1.5l.5 1-.5 1.5v2l1 1.5s-.4 2.6-1 5.5c-.6 3-.5 10.6-.5 10.6-1.4.1-1.5 2-1.5 2s-.3.4-2 3c-1.8 2.6-2.3 5.2-2.5 7.1-.3 1.9-1.6 3.3-3 5.5-1.5 2.2 1 5 1 5-2.6 6.3-3.2 10.8-3.3 13.5h9.7c-.3-.9-.8-2.9-.8-5 0-2.8 2.5-7.6 2.5-7.6l2-.5.5-2c.4-1.7 2.2-5.3 3.6-8.1 1.3-2.8 0-4.5 0-4.5l1-2.5L40 96l2-2.5 1.5-2L44 89s1.1-3.3 1.5-5.5c.4-2.3 3.6-5.5 3.6-5.5l.5-2.5 2.5 4 3 .5 6.6 10.6h3.6l1 1v4.5l-1.5 2 1 7.6.5 5.5 1 1 1 7.6-1.5 1-.5 7h19.8v-.4l-.5-1.5-2-1-2.5-1-5.1-5.5.5-7.1 1-2v-3.5l-1-2 1-5 .5-9.6-1-.5v-3h-1s-2-5.7-3-8.6c-1.1-2.9-4.8-8.1-6.6-9.6-1.8-1.5-1.9-4.1-2-5-.1-1 1-2 1-2s.5.3 1.5.5 1-.5 1-.5l1-2 1-1.5.5-4.5v-6.6c-.3-2.5-2.5-3.5-2.5-3.5l.5-2 2 1 2.5 1 3 1.5 3.6 1 2.5-.5 2.5-1.5 2.5-3.5 1-4.5 1.5-.5.5-1-.5-2v-4.5l2-1.5.5-1 1.5-1h11.7v-1.5h16.3v-2.3h.2zM80 31.2l-1.5-3 4.1.5-2.6 2.5zm3.6-4h-3l1-2h2v2z"
              fill="#FFF"/>
    </g>
</svg>